<?xml version="1.0" encoding="UTF-8"?>
<svg xmlns="http://www.w3.org/2000/svg" xmlns:xlink="http://www.w3.org/1999/xlink" viewBox="0 0 16 16" width="16px" height="16px">
<g id="surface8185068">
<path style="fill-rule:nonzero;fill:rgb(0%,0%,0%);fill-opacity:1;stroke-width:24;stroke-linecap:butt;stroke-linejoin:round;stroke:rgb(0%,0%,0%);stroke-opacity:1;stroke-miterlimit:10;" d="M 131.870603 74.556293 C 131.870603 88.250439 126.986677 100.891189 118.894682 110.802686 L 153.130046 144.99017 C 154.614377 146.4745 155.236838 148.581292 154.71014 150.59232 C 154.183442 152.603349 152.603349 154.183442 150.59232 154.71014 C 148.581292 155.236838 146.4745 154.614377 144.99017 153.130046 L 110.802686 118.894682 C 100.891189 126.986677 88.250439 131.870603 74.556293 131.870603 C 42.954418 131.870603 17.194101 106.110287 17.194101 74.556293 C 17.194101 42.954418 42.954418 17.194101 74.556293 17.194101 C 106.110287 17.194101 131.870603 42.954418 131.870603 74.556293 Z M 28.685692 74.556293 C 28.685692 99.933557 49.131148 120.379012 74.556293 120.379012 C 99.933557 120.379012 120.379012 99.933557 120.379012 74.556293 C 120.379012 49.131148 99.933557 28.685692 74.556293 28.685692 C 49.131148 28.685692 28.685692 49.131148 28.685692 74.556293 Z M 28.685692 74.556293 " transform="matrix(0.0815814,0,0,0.0815814,0.984,0.984)"/>
<path style=" stroke:none;fill-rule:nonzero;fill:rgb(0%,0%,0%);fill-opacity:1;" d="M 7.066406 2.386719 C 4.488281 2.386719 2.386719 4.488281 2.386719 7.066406 C 2.386719 9.640625 4.488281 11.742188 7.066406 11.742188 C 8.183594 11.742188 9.214844 11.34375 10.023438 10.683594 L 12.8125 13.476562 C 12.933594 13.597656 13.105469 13.648438 13.269531 13.605469 C 13.433594 13.5625 13.5625 13.433594 13.605469 13.269531 C 13.648438 13.105469 13.597656 12.933594 13.476562 12.8125 L 10.683594 10.023438 C 11.34375 9.214844 11.742188 8.183594 11.742188 7.066406 C 11.742188 4.488281 9.640625 2.386719 7.066406 2.386719 Z M 7.066406 3.324219 C 9.136719 3.324219 10.804688 4.992188 10.804688 7.066406 C 10.804688 9.136719 9.136719 10.804688 7.066406 10.804688 C 4.992188 10.804688 3.324219 9.136719 3.324219 7.066406 C 3.324219 4.992188 4.992188 3.324219 7.066406 3.324219 Z M 7.066406 3.324219 "/>
</g>
</svg>
